<svg width="41" height="40" viewBox="0 0 41 40" fill="none" xmlns="http://www.w3.org/2000/svg">
<g id="lets-icons:star-fill">
<path id="Vector" d="M17.9572 12.0333C19.0305 9.36663 19.5672 8.03163 20.4399 7.84663C20.6692 7.79803 20.9062 7.79803 21.1354 7.84663C22.0065 8.02997 22.5448 9.36497 23.6182 12.0333C24.2284 13.55 24.5327 14.3083 25.1045 14.825C25.265 14.97 25.4388 15.0983 25.6227 15.2083C26.2831 15.6066 27.1074 15.68 28.7558 15.8266C31.5462 16.0766 32.9405 16.2 33.3669 16.9933C33.4551 17.1577 33.515 17.3358 33.5441 17.52C33.6862 18.4083 32.6597 19.3366 30.6083 21.1983L30.0398 21.715C29.0802 22.585 28.602 23.02 28.3245 23.5616C28.1572 23.8871 28.0453 24.238 27.9935 24.6C27.9065 25.2016 28.047 25.8333 28.3278 27.095L28.4282 27.545C28.9314 29.8083 29.1838 30.94 28.8695 31.495C28.7306 31.7408 28.5313 31.9475 28.2903 32.0955C28.0494 32.2436 27.7747 32.3283 27.4919 32.3416C26.8532 32.3733 25.9521 31.6416 24.1482 30.1766C22.9611 29.2116 22.3676 28.73 21.7089 28.5416C21.1069 28.3696 20.4685 28.3696 19.8665 28.5416C19.2078 28.73 18.6126 29.2116 17.4255 30.1766C15.6233 31.64 14.7221 32.3733 14.0818 32.3433C13.7992 32.3295 13.5247 32.2445 13.284 32.0961C13.0434 31.9477 12.8444 31.7409 12.7058 31.495C12.3915 30.94 12.644 29.8083 13.1472 27.545L13.2475 27.095C13.5284 25.8333 13.6688 25.2016 13.5819 24.6C13.5294 24.2381 13.4176 23.8873 13.2509 23.5616C12.9733 23.02 12.4952 22.585 11.5355 21.715L10.9671 21.1983C8.9157 19.3383 7.89084 18.4083 8.03128 17.52C8.06038 17.3358 8.12029 17.1577 8.2085 16.9933C8.63483 16.2 10.0308 16.0766 12.8195 15.8266C14.468 15.68 15.2922 15.6066 15.951 15.21C16.1358 15.0986 16.3093 14.9697 16.4692 14.825C17.0427 14.3083 17.347 13.55 17.9572 12.0333Z" fill="black" fill-opacity="0.2" stroke="black" stroke-width="2"/>
</g>
</svg>
