<svg width="41" height="40" viewBox="0 0 41 40" fill="none" xmlns="http://www.w3.org/2000/svg">
<g id="lets-icons:star-fill">
<path id="Vector" d="M17.8322 12.0333C18.9055 9.36663 19.4422 8.03163 20.3149 7.84663C20.5442 7.79803 20.7812 7.79803 21.0104 7.84663C21.8815 8.02997 22.4198 9.36497 23.4932 12.0333C24.1034 13.55 24.4077 14.3083 24.9795 14.825C25.14 14.97 25.3138 15.0983 25.4977 15.2083C26.1581 15.6066 26.9824 15.68 28.6308 15.8266C31.4212 16.0766 32.8155 16.2 33.2419 16.9933C33.3301 17.1577 33.39 17.3358 33.4191 17.52C33.5612 18.4083 32.5347 19.3366 30.4833 21.1983L29.9148 21.715C28.9552 22.585 28.477 23.02 28.1995 23.5616C28.0322 23.8871 27.9203 24.238 27.8685 24.6C27.7815 25.2016 27.922 25.8333 28.2028 27.095L28.3032 27.545C28.8064 29.8083 29.0588 30.94 28.7445 31.495C28.6056 31.7408 28.4063 31.9475 28.1653 32.0955C27.9244 32.2436 27.6497 32.3283 27.3669 32.3416C26.7282 32.3733 25.8271 31.6416 24.0232 30.1766C22.8361 29.2116 22.2426 28.73 21.5839 28.5416C20.9819 28.3696 20.3435 28.3696 19.7415 28.5416C19.0828 28.73 18.4876 29.2116 17.3005 30.1766C15.4983 31.64 14.5971 32.3733 13.9568 32.3433C13.6742 32.3295 13.3997 32.2445 13.159 32.0961C12.9184 31.9477 12.7194 31.7409 12.5808 31.495C12.2665 30.94 12.519 29.8083 13.0222 27.545L13.1225 27.095C13.4034 25.8333 13.5438 25.2016 13.4569 24.6C13.4044 24.2381 13.2926 23.8873 13.1259 23.5616C12.8483 23.02 12.3702 22.585 11.4105 21.715L10.8421 21.1983C8.7907 19.3383 7.76584 18.4083 7.90628 17.52C7.93538 17.3358 7.99529 17.1577 8.0835 16.9933C8.50983 16.2 9.90584 16.0766 12.6945 15.8266C14.343 15.68 15.1672 15.6066 15.826 15.21C16.0108 15.0986 16.1843 14.9697 16.3442 14.825C16.9177 14.3083 17.222 13.55 17.8322 12.0333Z" fill="black" stroke="black" stroke-width="2"/>
</g>
</svg>
