<svg width="87" height="86" viewBox="0 0 87 86" fill="none" xmlns="http://www.w3.org/2000/svg">
<g id="ep:arrow-up-bold">
<path id="Vector" d="M29.1294 77.2065C28.1186 76.1986 27.5508 74.8317 27.5508 73.4064C27.5508 71.9812 28.1186 70.6143 29.1294 69.6063L55.8188 43L29.1294 16.3938C28.1473 15.3801 27.6038 14.0223 27.6161 12.613C27.6284 11.2037 28.1954 9.85559 29.1951 8.85902C30.1948 7.86245 31.5471 7.29717 32.9608 7.28492C34.3746 7.27268 35.7365 7.81445 36.7534 8.79355L67.2549 39.1999C68.2657 40.2079 68.8335 41.5748 68.8335 43C68.8335 44.4253 68.2657 45.7922 67.2549 46.8002L36.7534 77.2065C35.7423 78.2142 34.3711 78.7803 32.9414 78.7803C31.5117 78.7803 30.1405 78.2142 29.1294 77.2065Z" fill="white"/>
</g>
</svg>
