<svg width="87" height="88" viewBox="0 0 87 88" fill="none" xmlns="http://www.w3.org/2000/svg">
<g id="ep:arrow-up-bold">
<path id="Vector" d="M57.7895 9.78151C58.8012 10.7887 59.3701 12.1551 59.3713 13.5804C59.3724 15.0056 58.8057 16.373 57.7957 17.3818L31.128 44.0095L57.839 70.5942C58.822 71.6072 59.3665 72.9645 59.3554 74.3738C59.3442 75.7831 58.7783 77.1317 57.7794 78.129C56.7806 79.1264 55.4287 79.6928 54.015 79.7062C52.6013 79.7196 51.2389 79.1789 50.2212 78.2006L19.6951 47.8189C18.6834 46.8118 18.1145 45.4453 18.1133 44.0201C18.1122 42.5948 18.6789 41.2274 19.6889 40.2187L50.1655 9.78767C51.1758 8.7792 52.5465 8.21202 53.9763 8.21087C55.406 8.20971 56.7776 8.77467 57.7895 9.78151Z" fill="white"/>
</g>
</svg>
