<svg width="26" height="25" viewBox="0 0 26 25" fill="none" xmlns="http://www.w3.org/2000/svg">
<g id="streamline:smiley-cool-solid">
<path id="Vector" fill-rule="evenodd" clip-rule="evenodd" d="M13.1484 5.66072H2.65145C3.79083 3.92132 5.34745 2.49272 7.18035 1.50429C9.01325 0.515858 11.0645 -0.00117766 13.1484 2.01414e-06C15.2323 -0.00117766 17.2836 0.515858 19.1165 1.50429C20.9494 2.49272 22.506 3.92132 23.6454 5.66072H13.1484ZM13.1484 11.3054C13.0229 11.5566 12.886 11.8021 12.7382 12.0411C11.5542 13.9554 9.52106 15.5982 6.33435 15.5982C3.84803 15.5982 2.03882 14.5946 0.795664 13.2054C0.735967 13.1379 0.677442 13.0695 0.620117 13C0.748279 16.2269 2.12426 19.2791 4.45974 21.5171C6.79522 23.7552 9.90894 25.0052 13.1485 25.0055C16.388 25.0057 19.5019 23.7561 21.8377 21.5184C24.1735 19.2807 25.5499 16.2287 25.6785 13.0018C25.6211 13.07 25.5626 13.1373 25.503 13.2036C24.2598 14.5946 22.4506 15.5982 19.9643 15.5982C16.7758 15.5982 14.7445 13.9554 13.5586 12.0411C13.4109 11.8021 13.274 11.5566 13.1484 11.3054ZM17.6034 17.4893C17.5141 17.4127 17.4105 17.3544 17.2985 17.3178C17.1866 17.2812 17.0685 17.2669 16.951 17.2759C16.8335 17.2849 16.719 17.3168 16.6139 17.37C16.5088 17.4232 16.4153 17.4965 16.3387 17.5857C15.971 18.0063 15.5045 18.3296 14.9809 18.5268C14.8125 18.5714 14.6406 18.5982 14.4686 18.6107C14.2316 18.6273 14.0108 18.7371 13.8549 18.9159C13.6991 19.0947 13.6208 19.328 13.6375 19.5643C13.6541 19.8006 13.7642 20.0207 13.9436 20.1761C14.123 20.3315 14.3569 20.4094 14.594 20.3929C14.9218 20.3695 15.2462 20.3108 15.5613 20.2179C16.3871 19.9174 17.1226 19.4122 17.6983 18.75C17.7753 18.6611 17.8339 18.5579 17.8707 18.4463C17.9076 18.3348 17.9221 18.2171 17.9132 18.1C17.9044 17.9829 17.8725 17.8687 17.8193 17.7639C17.7662 17.6591 17.6928 17.5658 17.6034 17.4893ZM0.894185 8.05714C0.861349 8.0889 0.837574 8.12878 0.825297 8.17271C0.813021 8.21665 0.812685 8.26304 0.824325 8.30714C1.07511 9.45179 1.58921 10.7393 2.46694 11.7179C3.31422 12.6643 4.52693 13.3661 6.33435 13.3661C8.60034 13.3661 9.97426 12.2589 10.8341 10.8696C11.3819 9.95441 11.7519 8.94457 11.925 7.89286H1.30977C1.23295 7.89079 1.15651 7.90428 1.08507 7.93252C1.01364 7.96075 0.9487 8.00315 0.894185 8.05714ZM15.4646 10.8696C14.9162 9.95454 14.5455 8.94469 14.3719 7.89286H24.9871C25.1806 7.89286 25.3274 7.97143 25.4045 8.05714C25.4373 8.0889 25.4611 8.12878 25.4734 8.17271C25.4856 8.21665 25.486 8.26304 25.4743 8.30714C25.2235 9.45179 24.7094 10.7393 23.8317 11.7179C22.9844 12.6643 21.7699 13.3661 19.9625 13.3661C17.6983 13.3661 16.3244 12.2589 15.4646 10.8696Z" fill="black"/>
</g>
</svg>
