<svg width="70" height="70" viewBox="0 0 70 70" fill="none" xmlns="http://www.w3.org/2000/svg">
<g id="ph:basket-bold">
<path id="Vector" d="M38.2815 34.9999V45.9374C38.2815 46.8076 37.9358 47.6422 37.3204 48.2576C36.7051 48.8729 35.8705 49.2186 35.0002 49.2186C34.13 49.2186 33.2954 48.8729 32.68 48.2576C32.0647 47.6422 31.719 46.8076 31.719 45.9374V34.9999C31.719 34.1296 32.0647 33.295 32.68 32.6797C33.2954 32.0643 34.13 31.7186 35.0002 31.7186C35.8705 31.7186 36.7051 32.0643 37.3204 32.6797C37.9358 33.295 38.2815 34.1296 38.2815 34.9999ZM45.9541 34.6745L44.8604 45.612C44.7741 46.4779 45.0354 47.3425 45.5866 48.0158C46.1379 48.6891 46.934 49.1159 47.7998 49.2022C47.9092 49.2022 48.0213 49.2186 48.128 49.2186C48.9413 49.2179 49.7255 48.9151 50.3282 48.3689C50.931 47.8227 51.3094 47.0722 51.3901 46.2628L52.4838 35.3253C52.5592 34.4651 52.2926 33.6098 51.7416 32.945C51.1906 32.2801 50.3998 31.8592 49.5405 31.7736C48.6813 31.6879 47.8229 31.9445 47.1516 32.4875C46.4802 33.0305 46.05 33.8163 45.9541 34.6745ZM24.0463 34.6745C23.9505 33.8163 23.5202 33.0305 22.8489 32.4875C22.1775 31.9445 21.3192 31.6879 20.4599 31.7736C19.6007 31.8592 18.8098 32.2801 18.2589 32.945C17.7079 33.6098 17.4412 34.4651 17.5166 35.3253L18.6104 46.2628C18.6911 47.0726 19.0699 47.8236 19.6732 48.3698C20.2766 48.916 21.0614 49.2186 21.8752 49.2186C21.9819 49.2186 22.094 49.2186 22.2033 49.2022C23.0692 49.1159 23.8653 48.6891 24.4166 48.0158C24.9678 47.3425 25.229 46.4779 25.1428 45.612L24.0463 34.6745ZM66.7026 24.4971L62.5819 55.3956C62.4064 56.7125 61.7588 57.921 60.7596 58.7965C59.7603 59.6721 58.4772 60.1552 57.1487 60.1561H12.8518C11.5276 60.1523 10.2495 59.6697 9.25344 58.7972C8.25734 57.9247 7.61047 56.7214 7.43225 55.4093L3.31155 24.5108C3.24747 24.0464 3.28367 23.5736 3.41771 23.1243C3.55175 22.675 3.78051 22.2597 4.08858 21.9063C4.39665 21.5529 4.77689 21.2696 5.20367 21.0755C5.63046 20.8814 6.09388 20.781 6.56272 20.7811H18.1975L32.5393 4.40223C32.8473 4.05034 33.2269 3.76834 33.6527 3.57514C34.0786 3.38193 34.5408 3.28198 35.0084 3.28198C35.476 3.28198 35.9383 3.38193 36.3641 3.57514C36.79 3.76834 37.1696 4.05034 37.4776 4.40223L51.803 20.7811H63.4377C63.9052 20.7813 64.3673 20.8814 64.793 21.0746C65.2187 21.2679 65.5982 21.5499 65.9061 21.9018C66.2139 22.2537 66.443 22.6672 66.578 23.1148C66.713 23.5625 66.7508 24.0337 66.6889 24.4971H66.7026ZM26.9201 20.7811H43.0803L35.0002 11.5444L26.9201 20.7811ZM59.6889 27.3436H10.3115L13.8115 53.5936H56.1944L59.6889 27.3436Z" fill="black"/>
</g>
</svg>
